<svg xmlns="http://www.w3.org/2000/svg" viewBox="0 0 74.5 73.03"><defs><style>.cls-1{fill:#acb7c9;}.cls-2{fill:#fff;}</style></defs><title>Recurso 309</title><g id="Capa_2" data-name="Capa 2"><g id="Capa_1-2" data-name="Capa 1"><rect class="cls-1" width="74.5" height="73.03" rx="16.46"/><path class="cls-2" d="M36.75,17.7a4.29,4.29,0,0,0-4.63.92L25.51,28H20.24A4.26,4.26,0,0,0,16,32.26v8.5A4.26,4.26,0,0,0,20.24,45h5.27l6.37,9.1a4.14,4.14,0,0,0,3.24,1.53,4.34,4.34,0,0,0,1.63-.32,4.25,4.25,0,0,0,2.62-3.94V21.63A4.24,4.24,0,0,0,36.75,17.7Zm-9,23.06H20.24v-8.5h7.49l7.39-10.57V51.34Z"/><path class="cls-2" d="M43.63,19.5v4.26a10.63,10.63,0,0,1,0,21.26v4.25a14.89,14.89,0,0,0,0-29.77Z"/><path class="cls-2" d="M50,34.39A6.38,6.38,0,0,0,43.63,28v4.25a2.13,2.13,0,0,1,0,4.25v4.25A6.38,6.38,0,0,0,50,34.39Z"/></g></g></svg>